<svg
        width="48"
        height="48"
        viewBox="0 0 48 48"
        fill="none"
        xmlns="http://www.w3.org/2000/svg"
      >
        <rect width="48" height="48" rx="12" fill="url(#faviconBg)" />

        <rect
          x="16"
          y="16"
          width="16"
          height="16"
          rx="3"
          fill="url(#faviconCore)"
          stroke="#00ffff"
          stroke-width="0.5"
        />

        <circle cx="8" cy="8" r="2.5" fill="#ff6b6b" />
        <circle cx="40" cy="8" r="2.5" fill="#4ecdc4" />
        <circle cx="8" cy="40" r="2.5" fill="#a55eea" />
        <circle cx="40" cy="40" r="2.5" fill="#feca57" />

        <path
          d="M10.5 8 L16 16"
          stroke="#00ffff"
          stroke-width="1"
          opacity="0.8"
        />
        <path
          d="M37.5 8 L32 16"
          stroke="#00ffff"
          stroke-width="1"
          opacity="0.8"
        />
        <path
          d="M10.5 40 L16 32"
          stroke="#00ffff"
          stroke-width="1"
          opacity="0.8"
        />
        <path
          d="M37.5 40 L32 32"
          stroke="#00ffff"
          stroke-width="1"
          opacity="0.8"
        />

        <line
          x1="20"
          y1="16"
          x2="20"
          y2="32"
          stroke="#00ffff"
          stroke-width="0.3"
          opacity="0.5"
        />
        <line
          x1="24"
          y1="16"
          x2="24"
          y2="32"
          stroke="#00ffff"
          stroke-width="0.3"
          opacity="0.5"
        />
        <line
          x1="28"
          y1="16"
          x2="28"
          y2="32"
          stroke="#00ffff"
          stroke-width="0.3"
          opacity="0.5"
        />
        <line
          x1="16"
          y1="20"
          x2="32"
          y2="20"
          stroke="#00ffff"
          stroke-width="0.3"
          opacity="0.5"
        />
        <line
          x1="16"
          y1="24"
          x2="32"
          y2="24"
          stroke="#00ffff"
          stroke-width="0.3"
          opacity="0.5"
        />
        <line
          x1="16"
          y1="28"
          x2="32"
          y2="28"
          stroke="#00ffff"
          stroke-width="0.3"
          opacity="0.5"
        />

        <defs>
          <radialGradient id="faviconBg" cx="50%" cy="50%" r="70%">
            <stop offset="0%" stop-color="#1e293b" />
            <stop offset="100%" stop-color="#0f172a" />
          </radialGradient>
          <linearGradient id="faviconCore" x1="0%" y1="0%" x2="100%" y2="100%">
            <stop offset="0%" stop-color="#9333ea" />
            <stop offset="100%" stop-color="#06b6d4" />
          </linearGradient>
        </defs>
      </svg>